# xmcd CD database file
#
# Track frame offsets:
#	187
#	17515
#	31512
#	47490
#	62480
#	79727
#	99655
#	112845
#	130552
#	145662
#	167925
#	181480
#
# Disc length: 2764 seconds
#
# Revision: 3
# Processed by: cddbd v1.5.1PL2 Copyright (c) Steve Scherf et al.
# Submitted via: CDex 1.60beta1
#
DISCID=880aca0c
DTITLE=Tin Pan Alley - Yellow Magic Carnival - Tin Pan Alley Greatest Hits
DYEAR=1975
DGENRE=Pop
TTITLE0=YELLOW MAGIC CARNIVAL
TTITLE1=北京ダック
TTITLE2=絹街道
TTITLE3=蝶々-San
TTITLE4=香港Blues
TTITLE5="Sayonara" The Japanese Farewell Song
TTITLE6=CHATTANOOGA CHOO CHOO
TTITLE7=砂の女
TTITLE8=ソバカスのある少女
TTITLE9=100ワットの恋人
TTITLE10=JACKSON
TTITLE11=Hong Kong Night Sight
EXTD=\n\n\n YEAR: 1975
EXTT0=
EXTT1=
EXTT2=
EXTT3=
EXTT4=
EXTT5=
EXTT6=
EXTT7=
EXTT8=
EXTT9=
EXTT10=
EXTT11=
PLAYORDER=
